<svg id="Layer_2" data-name="Layer 2" xmlns="http://www.w3.org/2000/svg" viewBox="0 0 212.8 92.74"><defs><style>.cls-1{fill:#fff;}</style></defs><title>dollars</title><rect class="cls-1" width="203.2" height="81.14"/><path d="M203,62.33v75.14H5.84V62.33H203m3-3H2.84v81.14H206V59.33Z" transform="translate(-2.84 -59.33)"/><path d="M26,59.33a23.2,23.2,0,0,1-23.2,23.2C2.84,59.33,2.84,59.33,26,59.33Z" transform="translate(-2.84 -59.33)"/><path d="M206,82.53a23.2,23.2,0,0,1-23.2-23.2C206,59.33,206,59.33,206,82.53Z" transform="translate(-2.84 -59.33)"/><path d="M182.84,140.47a23.2,23.2,0,0,1,23.2-23.2C206,140.47,206,140.47,182.84,140.47Z" transform="translate(-2.84 -59.33)"/><path d="M2.84,117.27A23.2,23.2,0,0,1,26,140.47C2.84,140.47,2.84,140.47,2.84,117.27Z" transform="translate(-2.84 -59.33)"/><circle cx="101.6" cy="40.09" r="30.92"/><path class="cls-1" d="M110.61,109a5.56,5.56,0,0,0-.34-2,4.5,4.5,0,0,0-1.08-1.6,7.65,7.65,0,0,0-1.94-1.33,23.84,23.84,0,0,0-2.89-1.2,50.18,50.18,0,0,1-4.94-2,15.87,15.87,0,0,1-3.8-2.5A10,10,0,0,1,93.19,95a11.9,11.9,0,0,1-.08-8.68A9.75,9.75,0,0,1,95.32,83a11,11,0,0,1,3.44-2.26,15.13,15.13,0,0,1,4.49-1.1V73.88h4.3v5.83A13.3,13.3,0,0,1,111.9,81a10.66,10.66,0,0,1,3.29,2.59,11.5,11.5,0,0,1,2.1,3.76,15,15,0,0,1,.74,4.85h-7.47a7.26,7.26,0,0,0-1.48-4.93,5.06,5.06,0,0,0-4-1.68,7,7,0,0,0-2.38.36A4.32,4.32,0,0,0,101,87a4.11,4.11,0,0,0-1,1.55,5.83,5.83,0,0,0-.31,1.94,5.26,5.26,0,0,0,.31,1.87,4.06,4.06,0,0,0,1,1.52,8.63,8.63,0,0,0,1.95,1.33,24.28,24.28,0,0,0,3,1.28q2.71,1,4.92,2.11a16.14,16.14,0,0,1,3.78,2.53,10,10,0,0,1,2.42,3.33,10.9,10.9,0,0,1,.85,4.47,11.1,11.1,0,0,1-.78,4.26,9.31,9.31,0,0,1-2.23,3.27,11,11,0,0,1-3.49,2.19A16.41,16.41,0,0,1,107,119.7V125h-4.27V119.7a17.52,17.52,0,0,1-4.43-1,11.48,11.48,0,0,1-3.8-2.3,10.92,10.92,0,0,1-2.65-3.8,13.86,13.86,0,0,1-1-5.52h7.5a8.17,8.17,0,0,0,.56,3.24,5.55,5.55,0,0,0,1.46,2.07,5.36,5.36,0,0,0,2.06,1.09,8.77,8.77,0,0,0,2.37.32,6.27,6.27,0,0,0,4.35-1.34A4.47,4.47,0,0,0,110.61,109Z" transform="translate(-2.84 -59.33)"/><rect class="cls-1" x="4.8" y="5.8" width="203.2" height="81.14"/><path d="M207.84,68.13v75.14H10.64V68.13h197.2m3-3H7.64v81.14h203.2V65.13Z" transform="translate(-2.84 -59.33)"/><path d="M30.84,65.13a23.2,23.2,0,0,1-23.2,23.2C7.64,65.13,7.64,65.13,30.84,65.13Z" transform="translate(-2.84 -59.33)"/><path d="M210.84,88.33a23.2,23.2,0,0,1-23.2-23.2C210.84,65.13,210.84,65.13,210.84,88.33Z" transform="translate(-2.84 -59.33)"/><path d="M187.64,146.27a23.2,23.2,0,0,1,23.2-23.2C210.84,146.27,210.84,146.27,187.64,146.27Z" transform="translate(-2.84 -59.33)"/><path d="M7.64,123.07a23.2,23.2,0,0,1,23.2,23.2C7.64,146.27,7.64,146.27,7.64,123.07Z" transform="translate(-2.84 -59.33)"/><circle cx="107.6" cy="45.76" r="30.92"/><path class="cls-1" d="M116.61,114.64a5.56,5.56,0,0,0-.34-2,4.5,4.5,0,0,0-1.08-1.6,7.65,7.65,0,0,0-1.94-1.33,23.84,23.84,0,0,0-2.89-1.2,50.18,50.18,0,0,1-4.94-2,15.87,15.87,0,0,1-3.8-2.5,10,10,0,0,1-2.43-3.32A11.9,11.9,0,0,1,99.11,92a9.75,9.75,0,0,1,2.2-3.29,11,11,0,0,1,3.44-2.26,15.13,15.13,0,0,1,4.49-1.1V79.55h4.3v5.83a13.3,13.3,0,0,1,4.35,1.32,10.66,10.66,0,0,1,3.29,2.59,11.5,11.5,0,0,1,2.1,3.76A15,15,0,0,1,124,97.9h-7.47A7.26,7.26,0,0,0,115.08,93a5.06,5.06,0,0,0-4-1.68,7,7,0,0,0-2.38.36,4.32,4.32,0,0,0-1.65,1,4.11,4.11,0,0,0-1,1.55,5.83,5.83,0,0,0-.31,1.94,5.26,5.26,0,0,0,.31,1.87,4.06,4.06,0,0,0,1,1.52,8.63,8.63,0,0,0,1.95,1.33,24.28,24.28,0,0,0,3,1.28q2.71,1,4.92,2.11a16.14,16.14,0,0,1,3.78,2.53,10,10,0,0,1,2.42,3.33,10.9,10.9,0,0,1,.85,4.47,11.1,11.1,0,0,1-.78,4.26,9.31,9.31,0,0,1-2.23,3.27,11,11,0,0,1-3.49,2.19,16.41,16.41,0,0,1-4.57,1.06v5.27h-4.27v-5.27a17.52,17.52,0,0,1-4.43-1,11.48,11.48,0,0,1-3.8-2.3,10.92,10.92,0,0,1-2.65-3.8,13.86,13.86,0,0,1-1-5.52h7.5a8.17,8.17,0,0,0,.56,3.24,5.55,5.55,0,0,0,1.46,2.07,5.36,5.36,0,0,0,2.06,1.09,8.77,8.77,0,0,0,2.37.32,6.27,6.27,0,0,0,4.35-1.34A4.47,4.47,0,0,0,116.61,114.64Z" transform="translate(-2.84 -59.33)"/><rect class="cls-1" x="9.6" y="11.6" width="203.2" height="81.14"/><path d="M212.64,73.93v75.14H15.44V73.93h197.2m3-3H12.44v81.14h203.2V70.93Z" transform="translate(-2.84 -59.33)"/><path d="M35.64,70.93a23.2,23.2,0,0,1-23.2,23.2C12.44,70.93,12.44,70.93,35.64,70.93Z" transform="translate(-2.84 -59.33)"/><path d="M215.64,94.13a23.2,23.2,0,0,1-23.2-23.2C215.64,70.93,215.64,70.93,215.64,94.13Z" transform="translate(-2.84 -59.33)"/><path d="M192.44,152.07a23.2,23.2,0,0,1,23.2-23.2C215.64,152.07,215.64,152.07,192.44,152.07Z" transform="translate(-2.84 -59.33)"/><path d="M12.44,128.87a23.2,23.2,0,0,1,23.2,23.2C12.44,152.07,12.44,152.07,12.44,128.87Z" transform="translate(-2.84 -59.33)"/><circle cx="111.2" cy="51.69" r="30.92"/><path class="cls-1" d="M120.21,120.58a5.56,5.56,0,0,0-.34-2,4.5,4.5,0,0,0-1.08-1.6,7.65,7.65,0,0,0-1.94-1.33,23.84,23.84,0,0,0-2.89-1.2,50.18,50.18,0,0,1-4.94-2,15.87,15.87,0,0,1-3.8-2.5,10,10,0,0,1-2.43-3.32,11.9,11.9,0,0,1-.08-8.68,9.75,9.75,0,0,1,2.2-3.29,11,11,0,0,1,3.44-2.26,15.13,15.13,0,0,1,4.49-1.1V85.48h4.3v5.83a13.3,13.3,0,0,1,4.35,1.32,10.66,10.66,0,0,1,3.29,2.59,11.5,11.5,0,0,1,2.1,3.76,15,15,0,0,1,.74,4.85h-7.47a7.26,7.26,0,0,0-1.48-4.93,5.06,5.06,0,0,0-4-1.68,7,7,0,0,0-2.38.36,4.32,4.32,0,0,0-1.65,1,4.11,4.11,0,0,0-1,1.55,5.83,5.83,0,0,0-.31,1.94,5.26,5.26,0,0,0,.31,1.87,4.06,4.06,0,0,0,1,1.52,8.63,8.63,0,0,0,1.95,1.33,24.28,24.28,0,0,0,3,1.28q2.71,1,4.92,2.11a16.14,16.14,0,0,1,3.78,2.53,10,10,0,0,1,2.42,3.33,10.9,10.9,0,0,1,.85,4.47,11.1,11.1,0,0,1-.78,4.26,9.31,9.31,0,0,1-2.23,3.27,11,11,0,0,1-3.49,2.19,16.41,16.41,0,0,1-4.57,1.06v5.27h-4.27V131.3a17.52,17.52,0,0,1-4.43-1,11.48,11.48,0,0,1-3.8-2.3,10.92,10.92,0,0,1-2.65-3.8,13.86,13.86,0,0,1-1-5.52h7.5a8.17,8.17,0,0,0,.56,3.24A5.55,5.55,0,0,0,110,124a5.36,5.36,0,0,0,2.06,1.09,8.77,8.77,0,0,0,2.37.32,6.27,6.27,0,0,0,4.35-1.34A4.47,4.47,0,0,0,120.21,120.58Z" transform="translate(-2.84 -59.33)"/></svg>