<svg id="Layer_1" data-name="Layer 1" xmlns="http://www.w3.org/2000/svg" viewBox="0 0 215.83 215.83"><defs><style>.cls-1{fill:#fff;}</style></defs><title>facebook-logo</title><path class="cls-1" d="M201.54,5.17a9.3,9.3,0,0,1,9.29,9.29V201.71a9.3,9.3,0,0,1-9.29,9.29H152.36V132.58h24.17l.75-4.1,5.36-29.17,1.08-5.9H152.36V75.19a7.51,7.51,0,0,1,7.5-7.5h27.63V27.91h-36a39,39,0,0,0-38.94,38.94V93.41h-28v39.17h28V211H14.29A9.3,9.3,0,0,1,5,201.71V14.46a9.3,9.3,0,0,1,9.29-9.29H201.54m0-5H14.29A14.33,14.33,0,0,0,0,14.46V201.71A14.33,14.33,0,0,0,14.29,216h103.3V127.58h-28V98.41h28V66.85a34,34,0,0,1,33.94-33.94h31V62.68H159.87a12.54,12.54,0,0,0-12.5,12.5V98.41h30.37l-5.36,29.17h-25V216h54.18a14.33,14.33,0,0,0,14.29-14.29V14.46A14.33,14.33,0,0,0,201.54.17Z" transform="translate(0 -0.17)"/></svg>