<svg id="Layer_1" data-name="Layer 1" xmlns="http://www.w3.org/2000/svg" viewBox="0 0 182.33 81.07"><defs><style>.cls-1{fill:#fff;}.cls-2,.cls-3{fill:none;stroke:#000;stroke-miterlimit:10;}.cls-3{stroke-width:3px;}</style></defs><title>Untitled-1</title><rect class="cls-1" x="0.5" y="0.5" width="181.33" height="80.07"/><path d="M189.43,71.28v79.07H9.1V71.28H189.43m1-1H8.1v81.07H190.43V70.28Z" transform="translate(-8.1 -70.28)"/><rect class="cls-1" x="4.3" y="5.16" width="173.72" height="70.93"/><path d="M184.63,76.94v67.93H13.91V76.94H184.63m3-3H10.91v73.93H187.63V73.94Z" transform="translate(-8.1 -70.28)"/><rect class="cls-1" x="139.94" y="27.02" width="29.6" height="8.27"/><path d="M177.15,97.8v7.27h-28.6V97.8h28.6m1-1h-30.6v9.27h30.6V96.8Z" transform="translate(-8.1 -70.28)"/><line class="cls-2" x1="133.41" y1="35.79" x2="11.64" y2="35.79"/><line class="cls-2" x1="170.04" y1="47.86" x2="11.64" y2="47.86"/><line class="cls-2" x1="170.04" y1="69.84" x2="102.59" y2="69.84"/><line class="cls-2" x1="170.04" y1="19.41" x2="102.59" y2="19.41"/><line class="cls-2" x1="79.09" y1="69.84" x2="11.64" y2="69.84"/><line class="cls-3" x1="79.09" y1="12.97" x2="11.64" y2="12.97"/><line class="cls-3" x1="67.42" y1="18.68" x2="11.64" y2="18.68"/><line class="cls-3" x1="67.42" y1="24.38" x2="11.64" y2="24.38"/></svg>